PathFileType	4	(X/Y/Z)	c:/Users/goper/Files/vsCode/490R/osim_files/C15/C15_SSWS_01.trc
DataRate	CameraRate	NumFrames	NumMarkers	Units                	OrigDataRate	OrigDataStartFrame	OrigNumFrames
250.00	250.00	9	36	mm	250.0	1706	2729
                Frame#	Time	LPSIS			LASIS			LTH1			LTH2			LTH3			LTH4			LLFE			LMFE			LSH1			LSH2			LSH3			LSH4			LLMAL			LMMAL			LCAL			LMTP5			LTOE			LMTP1			RPSIS			RASIS			RTH1			RTH2			RTH3			RTH4			RLFE			RMFE			RSH1			RSH2			RSH3			RSH4			RLMAL			RMMAL			RCAL			RMTP1			RTOE			RMTP5		
		X1	Y1	Z1	X2	Y2	Z2	X3	Y3	Z3	X4	Y4	Z4	X5	Y5	Z5	X6	Y6	Z6	X7	Y7	Z7	X8	Y8	Z8	X9	Y9	Z9	X10	Y10	Z10	X11	Y11	Z11	X12	Y12	Z12	X13	Y13	Z13	X14	Y14	Z14	X15	Y15	Z15	X16	Y16	Z16	X17	Y17	Z17	X18	Y18	Z18	X19	Y19	Z19	X20	Y20	Z20	X21	Y21	Z21	X22	Y22	Z22	X23	Y23	Z23	X24	Y24	Z24	X25	Y25	Z25	X26	Y26	Z26	X27	Y27	Z27	X28	Y28	Z28	X29	Y29	Z29	X30	Y30	Z30	X31	Y31	Z31	X32	Y32	Z32	X33	Y33	Z33	X34	Y34	Z34	X35	Y35	Z35	X36	Y36	Z36

1706	6.82000	-1266.00757	1025.63416	305.24408	-1438.17981	1002.52618	351.08582	-1411.38281	612.71240	411.77411	-1416.26318	568.76270	395.28723	-1460.00806	628.86938	406.57358	-1466.21021	583.96387	394.55054	-1440.45081	495.73279	369.82166	-1436.65405	485.77780	248.44104	-1381.04224	385.99249	382.11569	-1381.67273	341.29053	384.85553	-1443.05371	380.75192	377.50070	-1435.34888	336.73764	380.76569	-1389.62781	82.83627	311.62640	-1408.82349	113.43028	224.64604	-1330.24414	61.96203	265.73422	-1514.38684	42.27016	323.80719	-1567.81750	66.16827	260.53668	-1527.98206	36.01111	205.50264	-1253.17810	1019.53430	185.21980	-1399.62463	992.52826	104.78080	-1383.66553	623.09381	41.68807	-1393.45679	577.56708	46.65077	-1444.12024	629.67737	43.40933	-1445.31396	581.87555	43.82638	-1417.44324	486.56540	62.90504	-1420.63416	465.17389	183.37653	-1297.60620	470.51050	58.78252	-1263.75232	443.33777	57.86510	-1329.96472	415.67197	51.33321	-1291.44043	400.24731	49.07918	-1072.36621	262.10730	127.72449	-1123.92334	245.21620	205.95253	-1035.33813	304.23489	184.13338	-1112.90784	114.97596	209.13206	-1132.63989	91.88181	151.14458	-1062.67908	128.81572	103.63733
1707	6.82400	-1269.43738	1025.98230	305.49686	-1441.55249	1002.87268	351.74280	-1413.17065	612.75739	411.90854	-1417.80469	568.74249	395.53961	-1461.85156	628.82324	406.79041	-1467.99744	583.82159	394.71622	-1441.73254	495.70331	369.97330	-1438.01208	485.70737	248.52322	-1381.56091	386.11349	381.86865	-1382.10706	341.40134	384.62277	-1443.66565	380.62747	377.66119	-1435.67700	336.67316	380.84207	-1389.70251	82.88052	311.54419	-1408.99146	113.50004	224.55844	-1330.27039	61.95623	265.69507	-1514.41492	42.26802	323.81848	-1567.87085	66.05989	260.51624	-1527.97278	35.95002	205.45511	-1256.95471	1020.04004	185.42372	-1403.43982	993.31085	105.35085	-1390.37451	624.29126	41.32713	-1400.40125	578.67889	46.31834	-1450.68433	631.25586	43.32882	-1452.26392	583.48541	43.62948	-1424.91357	488.00848	62.68382	-1427.70068	466.56885	183.31314	-1305.17993	472.21240	59.04295	-1271.36694	444.99033	58.44009	-1337.32629	417.42795	51.69540	-1298.82495	401.97437	49.27252	-1080.23364	263.55658	127.93060	-1131.92761	246.52167	206.06544	-1042.60779	304.81277	184.56512	-1122.22449	115.93359	207.97940	-1142.24817	93.76960	149.66501	-1072.15308	130.48332	102.39953
1708	6.82800	-1272.99841	1026.27625	305.70132	-1444.83545	1003.21576	352.41440	-1414.98950	612.69159	411.98190	-1419.53564	568.85980	395.61801	-1463.68115	628.65631	406.87033	-1469.66699	583.71356	394.90445	-1442.89404	495.61151	370.11496	-1439.36719	485.64258	248.52995	-1381.94299	386.19452	381.52853	-1382.38916	341.50372	384.37674	-1444.24573	380.57169	377.82507	-1436.00024	336.59387	380.96002	-1389.77063	82.91569	311.46109	-1409.14172	113.51460	224.46495	-1330.32251	61.94709	265.74146	-1514.42773	42.25749	323.83624	-1567.92102	65.90240	260.52374	-1528.00220	35.87201	205.40714	-1260.68359	1020.55286	185.61841	-1407.25623	994.06525	105.93775	-1397.29785	625.29517	41.24550	-1407.38477	579.89227	46.00883	-1457.17981	632.85559	43.19334	-1459.13611	585.09589	43.48241	-1432.28369	489.37970	62.52987	-1435.22437	467.99289	183.25140	-1312.65076	473.83435	59.38244	-1278.93555	446.57684	58.92118	-1344.69690	419.10352	52.07284	-1306.31946	403.54156	49.46123	-1088.52393	264.62363	128.44460	-1139.92712	247.36449	206.28745	-1050.00232	305.03851	185.13422	-1131.25696	116.70096	206.81288	-1152.05481	95.50343	148.40280	-1081.75171	131.99744	101.16171
1709	6.83200	-1276.30969	1026.49048	305.91953	-1448.10657	1003.54810	353.10321	-1416.66101	612.73999	412.06067	-1421.02991	568.92194	395.75943	-1465.33850	628.48645	407.03510	-1471.19495	583.52228	395.00583	-1443.99841	495.46112	370.19812	-1440.87158	485.61951	248.65952	-1382.41821	386.25500	381.31833	-1382.66687	341.58533	384.15311	-1444.77344	380.50064	378.03647	-1436.25122	336.46973	381.03827	-1389.80701	82.93176	311.38254	-1409.29846	113.51298	224.36139	-1330.39404	61.97652	265.71759	-1514.41016	42.19282	323.86856	-1567.96045	65.74658	260.50571	-1528.06384	35.80606	205.35400	-1264.50415	1020.99255	185.77910	-1411.70703	994.99335	106.41776	-1403.80725	626.43750	40.84917	-1414.30737	581.07239	45.59570	-1463.70544	634.44678	43.08665	-1466.01477	586.67511	43.39040	-1439.78723	490.81448	62.45603	-1442.67078	469.38116	183.20882	-1320.15149	475.27200	59.78276	-1286.35876	448.09143	59.44625	-1352.08984	420.56769	52.50720	-1313.85803	405.06531	49.67382	-1096.53870	265.63831	128.50357	-1148.14294	248.16032	206.31328	-1057.58020	305.03671	185.61374	-1140.61987	117.26192	205.71663	-1161.36963	96.63700	147.51781	-1091.40979	133.27000	99.95354
1710	6.83600	-1279.75488	1026.74792	306.12469	-1451.45911	1003.85168	353.70898	-1418.21155	612.74792	412.14191	-1422.31616	568.82770	395.72525	-1467.07129	628.31451	407.14001	-1472.60950	583.36499	395.13177	-1444.94202	495.34085	370.31137	-1442.14514	485.66525	248.71494	-1385.08618	386.55716	383.72620	-1382.89844	341.64261	383.90558	-1445.12512	380.39304	378.17572	-1436.49792	336.36963	381.08609	-1389.84766	82.95379	311.26846	-1409.46313	113.48500	224.27264	-1330.34595	61.94117	265.56088	-1514.38879	42.15942	323.86038	-1568.00439	65.60023	260.48343	-1528.06763	35.73251	205.29652	-1268.17981	1021.47424	185.95886	-1415.68933	995.76410	106.94381	-1410.28125	627.58246	40.45142	-1421.08850	582.26086	45.33703	-1470.21973	636.03528	43.01749	-1472.83386	588.33771	43.28068	-1447.20605	492.17850	62.34765	-1450.16064	470.78528	183.21474	-1327.65955	476.62933	60.24990	-1293.77979	449.47333	60.05783	-1359.58325	421.94675	53.03100	-1321.37659	406.50641	49.91303	-1104.78711	266.33432	128.59750	-1156.45605	248.61211	206.40144	-1065.24963	304.82812	186.03015	-1149.95435	117.66397	204.59726	-1171.84656	98.37476	145.98714	-1101.19080	134.32289	98.73090
1711	6.84000	-1283.12024	1027.05530	306.26242	-1454.55115	1004.18488	354.37915	-1419.73303	612.79297	412.16833	-1424.05566	569.03278	395.91669	-1468.55579	628.22400	407.23123	-1474.20398	583.27631	395.21210	-1445.93494	495.26663	370.38474	-1443.70447	485.63895	248.87340	-1385.47937	386.61392	383.49197	-1382.73303	341.88443	383.81824	-1445.45068	380.27045	378.26605	-1436.74402	336.25687	381.15063	-1389.84937	82.99492	311.15530	-1409.62292	113.47525	224.17415	-1330.37415	62.00859	265.53671	-1514.38440	42.11856	323.86264	-1568.03735	65.47876	260.45209	-1528.10779	35.66659	205.27185	-1271.81787	1022.00079	186.07376	-1419.61438	996.51013	107.49215	-1416.80847	628.79297	40.15551	-1427.94714	583.52661	44.99982	-1476.66333	637.65356	42.86516	-1479.68872	589.96631	43.23675	-1454.53210	493.65155	62.24852	-1457.61023	472.25204	183.24493	-1335.03589	478.01096	60.78197	-1301.21960	450.67493	60.56686	-1366.82837	423.34836	53.56688	-1328.82031	407.84256	50.24773	-1113.17297	266.77744	128.63541	-1164.79382	248.94839	206.41234	-1073.04468	304.53830	186.30650	-1159.36792	117.93974	203.50224	-1181.84326	99.47017	144.80667	-1111.09424	135.20181	97.59771
1712	6.84400	-1286.35754	1027.31274	306.46057	-1457.89270	1004.46350	355.04337	-1421.33228	612.86322	412.27307	-1425.28601	569.03479	395.95801	-1470.26025	628.11658	407.34460	-1475.61377	583.13898	395.27100	-1446.92822	495.22510	370.51083	-1444.97241	485.66650	248.96788	-1385.95154	386.71912	383.35428	-1383.12671	341.95242	383.66614	-1445.94592	380.18753	378.36478	-1437.05212	336.21793	381.23419	-1389.91614	83.07149	311.04315	-1409.79163	113.50017	224.09138	-1330.40601	62.07820	265.45682	-1514.39636	42.09845	323.85999	-1568.08691	65.36831	260.43674	-1528.13171	35.60717	205.24449	-1275.41699	1022.56482	186.23239	-1423.57739	997.28101	108.07725	-1423.31750	630.00433	39.90517	-1435.15723	584.65125	44.90465	-1483.04614	639.31354	42.87013	-1486.42175	591.60156	43.18469	-1461.88184	495.10556	62.24272	-1464.94373	473.70013	183.26123	-1342.30164	479.20990	61.30519	-1308.70508	451.77542	61.24252	-1374.18799	424.40854	54.15496	-1336.46362	409.06998	50.44933	-1121.66431	267.00610	128.71471	-1173.38904	249.20950	206.53571	-1080.94104	304.06299	186.52942	-1169.00928	118.03124	202.46082	-1192.42944	100.34769	143.23474	-1121.10205	135.94179	96.59492
1713	6.84800	-1289.65588	1027.65710	306.59821	-1461.16895	1004.76270	355.68985	-1422.74561	612.97003	412.30197	-1426.61877	569.31512	395.83118	-1471.82678	628.03845	407.41208	-1477.01440	583.03064	395.38419	-1447.98145	495.18695	370.59869	-1446.42505	485.63168	249.12590	-1385.89392	386.70187	382.47327	-1383.89233	341.91953	383.44092	-1446.58582	380.18921	378.49207	-1437.47888	336.19049	381.33084	-1390.02258	83.15136	310.92215	-1409.95959	113.53161	224.02010	-1330.42078	62.21312	265.34564	-1514.45459	42.12341	323.84698	-1568.14575	65.31214	260.40720	-1528.37878	35.48878	205.29556	-1279.07520	1023.09784	186.31761	-1427.46008	998.04395	108.58200	-1429.77466	631.23499	39.68629	-1441.65918	586.07544	44.56226	-1489.40637	640.93109	42.90134	-1493.14954	593.31604	43.17092	-1469.23987	496.53394	62.25477	-1472.68872	475.16226	183.25175	-1349.66479	480.30008	61.85574	-1316.13562	452.77335	61.84662	-1381.62915	425.46552	54.72979	-1343.77222	410.22070	50.55927	-1130.20239	267.10812	128.68167	-1182.03870	249.22040	206.40862	-1089.04199	303.41925	186.72626	-1178.59937	118.00849	201.42757	-1202.53198	100.98108	142.17838	-1131.06714	136.38788	95.54090
1714	6.85200	-1293.01941	1027.97461	306.71411	-1464.19263	1005.00183	356.38995	-1424.27258	613.08881	412.34015	-1427.93762	569.24054	396.02304	-1473.43115	628.00940	407.52585	-1478.49414	582.96582	395.47531	-1448.77454	494.85507	370.18521	-1447.64087	485.60941	249.26112	-1386.48425	386.78104	382.54041	-1383.86011	342.23648	383.56561	-1447.19873	380.14069	378.64072	-1437.97559	336.21005	381.42914	-1390.11841	83.22494	310.83780	-1410.15796	113.62672	223.96960	-1330.44470	62.36784	265.27487	-1514.50806	42.15457	323.83145	-1568.20813	65.26432	260.38934	-1528.19775	35.52638	205.21037	-1282.70654	1023.63507	186.40588	-1431.40662	998.80664	109.15006	-1436.17017	632.51428	39.46550	-1448.43713	587.36664	44.40935	-1495.75122	642.61444	42.94134	-1499.83899	595.02142	43.18550	-1476.39966	498.09076	62.24084	-1479.91943	476.71780	183.34482	-1356.91052	481.37369	62.47985	-1323.65674	453.54013	62.38268	-1388.77014	426.27585	55.36066	-1351.63757	411.21494	50.88060	-1138.71790	266.98395	128.59692	-1190.54602	249.07616	206.37154	-1097.15540	302.55875	186.86546	-1188.50769	117.82327	200.43240	-1212.89038	101.37103	141.18248	-1141.13538	136.71037	94.48782
